PathFileType	4	(x/y/z)	S02_M20_T09
DataRate	CameraRate	NumFrames	NumMarkers	Units	OrigDataRate	OrigDataStartFrame	OrigNumFrames
240	240	6	51	mm	240	170	453
Frame#	Time	Sternum			R.Acromium			L.Acromium			Top.Head			R.ASIS			L.ASIS			R.PSIS			L.PSIS			R.Great.Tro			L.Great.Tro			R.Iliac.Crest			L.Iliac.Crest			V.Sacral			R.Thigh.Upper.Post			R.Thigh.Lower.Ant			R.Thigh.Lower.Post			R.Thigh.Upper.Ant			R.Knee.Lat			R.Knee.Med			R.Shank.Upper.Post			R.Shank.Lower.Ant			R.Shank.Lower.Post			R.Shank.Upper.Ant			R.Ankle.Lat			R.Ankle.Med			R.Heel.Upper			R.Heel.Med			R.Heel.Lat			R.Toe.Lat			R.Toe.Med			R.Toe.Tip			L.Thigh.Upper.Post			L.Thigh.Lower.Ant			L.Thigh.Lower.Post			L.Thigh.Upper.Ant			L.Knee.Lat			L.Knee.Med			L.Shank.Upper.Post			L.Shank.Lower.Ant			L.Shank.Lower.Post			L.Shank.Upper.Ant			L.Ankle.Lat			L.Ankle.Med			L.Heel.Upper			L.Heel.Med			L.Heel.Lat			L.Toe.Lat			L.Toe.Med			L.Toe.Tip			Cervical.Spine			Back			
		X1	Y1	Z1	X2	Y2	Z2	X3	Y3	Z3	X4	Y4	Z4	X5	Y5	Z5	X6	Y6	Z6	X7	Y7	Z7	X8	Y8	Z8	X9	Y9	Z9	X10	Y10	Z10	X11	Y11	Z11	X12	Y12	Z12	X13	Y13	Z13	X14	Y14	Z14	X15	Y15	Z15	X16	Y16	Z16	X17	Y17	Z17	X18	Y18	Z18	X19	Y19	Z19	X20	Y20	Z20	X21	Y21	Z21	X22	Y22	Z22	X23	Y23	Z23	X24	Y24	Z24	X25	Y25	Z25	X26	Y26	Z26	X27	Y27	Z27	X28	Y28	Z28	X29	Y29	Z29	X30	Y30	Z30	X31	Y31	Z31	X32	Y32	Z32	X33	Y33	Z33	X34	Y34	Z34	X35	Y35	Z35	X36	Y36	Z36	X37	Y37	Z37	X38	Y38	Z38	X39	Y39	Z39	X40	Y40	Z40	X41	Y41	Z41	X42	Y42	Z42	X43	Y43	Z43	X44	Y44	Z44	X45	Y45	Z45	X46	Y46	Z46	X47	Y47	Z47	X48	Y48	Z48	X49	Y49	Z49	X50	Y50	Z50	X51	Y51	Z51	

170	0.70417	-554.42	1047.5	286.65	-664.79	1282.6	437.5	-644.33	1291.4	147.25	-628.01	1576.5	312.52	-570.08	880.79	378.22	-598.58	863.04	164.22	-791.16	928.71	351.58	-804.4	930.77	278.77	-616.69	780.96	479.93	-753.26	793.2	99.372	-663.7	931.68	451.26	-725.06	920.28	114.46	-823.04	881.78	313.42	-527.93	599.39	451.11	-450.42	554.17	402.15	-506.6	514.44	426.75	-476.75	637.55	424.03	-457.4	456.85	404.2	-482.97	440.45	264.85	-486.79	238.13	392.56	-398.88	176.2	366.26	-464.59	168.48	379.99	-415.12	242.81	383.91	-430.9	85.068	364.21	-427.54	97.504	281.46	-490.55	68.881	309.88	-475.31	37.516	283	-483.89	38.672	346.59	-322.32	44.872	384.52	-293.15	42.868	277.69	-247.08	76.225	331.06	-838.42	592.66	137.63	-793.83	492.05	125.95	-866.33	507.92	157.83	-772.42	583.63	108.83	-839.89	422.26	137.21	-825.29	411.87	272.91	-1012.2	343.66	147.37	-1024.3	235.46	156.63	-1063.4	291.42	164.41	-971.25	292.94	141.68	-1118.7	177.21	173.02	-1113.5	175.81	255.1	-1185.3	197.89	208.16	-1196	178.95	245.45	-1202.2	172.02	183.43	-1095.2	47.557	162.72	-1075.5	54.82	272.12	-1021	44.068	232.04	-733.39	1354.4	291.09	-815.5	1104.4	286.19
171	0.70833	-547.84	1047.7	287.41	-658.14	1282.6	438.45	-638.03	1291.8	148.3	-622.19	1576.9	313.64	-563.66	881.09	378.89	-591.93	862.91	164.98	-784.82	929.07	351.51	-797.86	930.91	278.65	-610.09	781.89	480.23	-746.24	792.2	99.576	-657.43	932.09	451.65	-717.87	920.54	114.64	-816.64	882.04	313.38	-521.43	600.37	451.39	-444	555.08	402.34	-500.1	515.37	427.18	-470.33	638.49	424.11	-451.01	457.44	404.25	-477.24	441.3	265.19	-483.16	238.77	392.95	-396.23	175.68	366.13	-461.96	168.85	380.28	-411.47	242.48	383.91	-429.86	85.095	364.19	-426.5	97.47	281.57	-489.94	69.415	309.94	-475.01	37.918	283.03	-483.54	39.143	346.64	-321.74	43.894	384.35	-292.59	41.288	277.44	-246.04	74.136	330.74	-830.65	591.39	137.85	-785.47	491.09	125.87	-858.04	506.46	157.83	-764.58	582.83	109.02	-831.46	421.33	136.85	-816.47	410.38	272.4	-1004.6	345.01	147.22	-1018.1	236.78	156.03	-1056.6	293.36	164.21	-964.6	293.79	141.1	-1113.1	179.8	172.4	-1107.8	178.25	254.48	-1178.7	202.42	207.68	-1190.1	184.08	245.15	-1196.6	177.14	183.01	-1093.7	49.314	162.61	-1073.6	56.227	271.89	-1020	43.503	231.83	-726.95	1354.6	292.3	-809.04	1104.6	286.92
172	0.7125	-541.31	1048.1	288.18	-651.54	1282.7	439.39	-631.74	1292.3	149.36	-616.36	1577.3	314.75	-557.28	881.48	379.56	-585.32	862.82	165.74	-778.53	929.48	351.41	-791.38	931.1	278.49	-603.58	782.91	480.53	-739.22	791.23	99.78	-651.24	932.58	451.99	-710.71	920.84	114.82	-810.29	882.36	313.31	-514.96	601.4	451.71	-437.64	556.02	402.54	-493.63	516.33	427.67	-463.95	639.47	424.19	-444.72	458.01	404.34	-471.41	442.18	265.55	-479.64	239.4	393.36	-393.7	175.18	366.04	-459.43	169.24	380.6	-407.95	242.16	383.95	-428.92	85.143	364.18	-425.55	97.478	281.7	-489.4	69.904	310.01	-474.74	38.305	283.08	-483.22	39.573	346.7	-321.22	43.058	384.2	-292.11	39.904	277.21	-245.12	72.273	330.45	-822.8	590.1	138.03	-776.97	490.13	125.74	-849.63	504.95	157.79	-756.66	582.05	109.18	-822.85	420.4	136.44	-807.46	408.87	271.85	-996.88	346.36	147.07	-1011.5	238.1	155.42	-1049.5	295.32	164.03	-957.76	294.67	140.51	-1107.3	182.44	171.76	-1101.9	180.72	253.88	-1171.8	207.03	207.2	-1183.8	189.28	244.85	-1190.5	182.36	182.59	-1092.1	51.239	162.51	-1071.4	57.75	271.64	-1018.8	42.896	231.56	-720.55	1354.8	293.5	-802.61	1104.9	287.62
173	0.71667	-534.82	1048.4	288.96	-644.97	1282.8	440.32	-625.48	1292.7	150.41	-610.53	1577.8	315.86	-550.94	881.96	380.23	-578.76	862.78	166.5	-772.32	929.94	351.26	-784.94	931.33	278.29	-597.15	784.01	480.83	-732.23	790.31	99.989	-645.14	933.13	452.29	-703.6	921.17	114.99	-803.99	882.71	313.21	-508.53	602.43	452.07	-431.35	556.96	402.77	-487.23	517.3	428.21	-457.62	640.44	424.28	-438.55	458.54	404.45	-465.5	443.06	265.9	-476.24	240.04	393.78	-391.29	174.69	365.97	-457.03	169.64	380.92	-404.55	241.83	384.01	-428.06	85.207	364.19	-424.7	97.521	281.85	-488.93	70.349	310.09	-474.5	38.672	283.13	-482.93	39.963	346.77	-320.77	42.349	384.08	-291.68	38.703	277	-244.31	70.623	330.19	-814.88	588.79	138.16	-768.34	489.18	125.58	-841.08	503.42	157.7	-748.66	581.29	109.3	-814.08	419.46	135.99	-798.24	407.34	271.26	-988.92	347.72	146.93	-1004.6	239.43	154.83	-1042.2	297.29	163.85	-950.76	295.58	139.88	-1101.2	185.12	171.13	-1095.7	183.22	253.3	-1164.6	211.68	206.73	-1177.2	194.53	244.55	-1184.2	187.67	182.2	-1090.4	53.335	162.42	-1069	59.385	271.38	-1017.4	42.248	231.25	-714.2	1355.2	294.67	-796.23	1105.3	288.28
174	0.72083	-528.39	1048.9	289.74	-638.46	1283	441.22	-619.25	1293.3	151.46	-604.7	1578.3	316.96	-544.64	882.53	380.9	-572.24	862.79	167.27	-766.17	930.44	351.07	-778.56	931.6	278.07	-590.81	785.18	481.13	-725.25	789.43	100.2	-639.13	933.73	452.55	-696.53	921.53	115.17	-797.76	883.1	313.08	-502.18	603.46	452.46	-425.15	557.87	403.01	-480.92	518.26	428.79	-451.36	641.39	424.39	-432.53	459.02	404.61	-459.54	443.91	266.26	-472.95	240.66	394.21	-389	174.22	365.92	-454.73	170.05	381.25	-401.28	241.5	384.1	-427.28	85.284	364.21	-423.94	97.595	282.01	-488.52	70.751	310.19	-474.28	39.018	283.19	-482.68	40.313	346.85	-320.37	41.755	383.97	-291.32	37.67	276.8	-243.6	69.171	329.97	-806.9	587.47	138.24	-759.58	488.26	125.39	-832.42	501.87	157.57	-740.58	580.56	109.38	-805.15	418.54	135.51	-788.82	405.8	270.63	-980.74	349.08	146.79	-997.45	240.76	154.25	-1034.7	299.28	163.68	-943.57	296.51	139.24	-1094.9	187.85	170.5	-1089.3	185.75	252.75	-1157	216.36	206.27	-1170.1	199.81	244.26	-1177.5	193.06	181.83	-1088.4	55.602	162.33	-1066.4	61.126	271.09	-1016	41.565	230.88	-707.9	1355.5	295.82	-789.89	1105.7	288.91
175	0.725	-522.01	1049.4	290.52	-631.99	1283.2	442.11	-613.06	1293.8	152.5	-598.87	1578.8	318.07	-538.39	883.19	381.57	-565.78	862.85	168.05	-760.08	930.96	350.85	-772.23	931.91	277.82	-584.58	786.4	481.44	-718.31	788.6	100.43	-633.21	934.39	452.77	-689.53	921.92	115.34	-791.58	883.53	312.92	-495.92	604.45	452.88	-419.06	558.72	403.26	-474.73	519.17	429.39	-445.19	642.3	424.53	-426.68	459.43	404.8	-453.54	444.72	266.61	-469.8	241.27	394.64	-386.84	173.75	365.91	-452.56	170.46	381.58	-398.15	241.17	384.22	-426.58	85.37	364.24	-423.25	97.696	282.17	-488.16	71.114	310.29	-474.09	39.342	283.25	-482.44	40.626	346.92	-320.02	41.261	383.89	-291	36.79	276.63	-242.98	67.902	329.78	-798.85	586.16	138.27	-750.71	487.37	125.15	-823.66	500.31	157.39	-732.43	579.86	109.43	-796.08	417.63	134.98	-779.21	404.27	269.96	-972.36	350.44	146.65	-990.03	242.1	153.68	-1026.9	301.27	163.52	-936.22	297.46	138.59	-1088.3	190.61	169.88	-1082.5	188.28	252.22	-1149.1	221.06	205.85	-1162.7	205.1	243.97	-1170.4	198.51	181.5	-1086.2	58.034	162.24	-1063.5	62.962	270.79	-1014.4	40.854	230.44	-701.66	1355.9	296.94	-783.6	1106.1	289.51
